{"title":"Spoiled Virgins - Anya","uid":7790635,"size":779974620,"categoryP":"porn","categoryS":"movie_clips","magnet":"?xt=urn:btih:3acb18dcedeaef4988370d3ef4e40c26b8be4995&amp;dn=Spoiled+Virgins+-+Anya&amp;tr=udp%3A%2F%2Ftracker.openbittorrent.com%3A80&amp;tr=udp%3A%2F%2Fopen.demonii.com%3A1337&amp;tr=udp%3A%2F%2Ftracker.coppersurfer.tk%3A6969&amp;tr=udp%3A%2F%2Fexodus.desync.com%3A6969","seeders":0,"leechers":2,"uploader":"athklym","files":1,"time":1352017669,"description":" &lt;a href=&quot;http://69.10.35.194/~ponkleec/imgsrc/1001.html&quot; rel=&quot;nofollow&quot; target=&quot;_NEW&quot;&gt;http://69.10.35.194/~ponkleec/imgsrc/1001.html&lt;/a&gt;\nVirgin girl got her hymen tore and her throat filled with horny flesh.\nThis bitch now loves fat sausages more than anything else. Her first sex was wild and hot as two sexually obsessed studs fucked her and fed with tasty hot cum. Anya tried not to scream from pain when the huge cock tore her thin hymen. Teen girl enjoyed everything her friends did. She sucked both cocks and rode them eagerly. Her tight hole was pounced hard and Anya screamed from orgasm.\n\nSpoiled_Virgins_Anya.wmv\nFormat : Windows Media\nFile size : 744 MiB\nDuration : 25mn 18s\nOverall bit rate mode : Variable\nOverall bit rate : 4 110 Kbps\nMaximum Overall bit rate : 4 162 Kbps\nEncoded date : UTC 2011-05-28 17:11:31.371\n\nVideo\nID : 1\nFormat : VC-1\nFormat profile : MP@HL\nCodec ID : WMV3\nCodec ID/Info : Windows Media Video 9\nCodec ID/Hint : WMV3\nDescription of the codec : Windows Media Video 9 - Professional\nDuration : 25mn 18s\nBit rate mode : Variable\nBit rate : 4 000 Kbps\nWidth : 1 440 pixels\nHeight : 1 080 pixels\nDisplay aspect ratio : 4:3\nFrame rate : 29.970 fps\nBit depth : 8 bits\nScan type : Progressive\nCompression mode : Lossy\nBits/(Pixel*Frame) : 0.086\nStream size : 724 MiB (97%)\nLanguage : Russian\n\nAudio\nID : 2\nFormat : WMA\nFormat version : Version 2\nCodec ID : 161\nCodec ID/Info : Windows Media Audio\nDescription of the codec : Windows Media Audio 9.2 - 128 kbps, 48 kHz, stereo 2-pass CBR\nDuration : 25mn 18s\nBit rate mode : Constant\nBit rate : 128 Kbps\nChannel(s) : 2 channels\nSampling rate : 48.0 KHz\nBit depth : 16 bits\nStream size : 23.2 MiB (3%)\nLanguage : Russian","torrent":{"xt":"urn:btih:3acb18dcedeaef4988370d3ef4e40c26b8be4995","amp;dn":"Spoiled+Virgins+-+Anya","amp;tr":["udp%3A%2F%2Ftracker.openbittorrent.com%3A80","udp%3A%2F%2Fopen.demonii.com%3A1337","udp%3A%2F%2Ftracker.coppersurfer.tk%3A6969","udp%3A%2F%2Fexodus.desync.com%3A6969"],"infoHash":"3acb18dcedeaef4988370d3ef4e40c26b8be4995","infoHashBuffer":{"type":"Buffer","data":[58,203,24,220,237,234,239,73,136,55,13,62,244,228,12,38,184,190,73,149]},"announce":[],"urlList":[]}}